<svg width="90" height="56" viewBox="0 0 90 56" fill="none" xmlns="http://www.w3.org/2000/svg">
<rect width="90" height="56" fill="#282828"/>
<rect width="90" height="28" fill="#255A57"/>
<path d="M51.8189 13.2546C51.7885 13.1255 51.7499 13.016 51.7223 12.9178L51.6919 12.828C51.1841 11.3966 50.0111 10.5546 48.5676 10.5631C48.3137 10.5631 48.0984 10.5827 47.8749 10.6332C46.7212 10.8914 45.355 11.7362 45.355 14.2874V18.3206C45.355 18.6097 45.424 18.7781 45.493 18.9156C45.5813 19.084 45.7469 19.2131 45.9318 19.2636C45.9815 19.2748 46.0395 19.2833 46.0974 19.2833C46.2437 19.2833 46.3817 19.244 46.4976 19.1541C46.8012 18.9465 46.8012 18.5872 46.8012 18.2897V14.2874C46.8012 12.9375 47.2207 12.2807 48.1978 12.0814C48.8519 11.9327 49.4977 12.1516 49.8979 12.6372C50.0939 12.8757 50.2098 13.1031 50.2595 13.3023C50.4058 14.018 50.4831 14.2369 50.5824 14.3745L50.6128 14.4137C50.8281 14.6607 51.2089 14.7309 51.5208 14.5737C51.9652 14.3267 51.9155 13.7402 51.8189 13.2546Z" fill="white"/>
<path d="M16.7858 8.09027C16.2476 7.98081 15.7012 7.98081 15.174 8.09027C13.2503 8.48601 12 10.0353 12 12.042V18.3289C12 18.5871 12.0304 18.7667 12.1076 18.9154L12.1187 18.9267C12.207 19.0951 12.3726 19.2242 12.5575 19.2747C12.7535 19.3252 12.9577 19.2859 13.1233 19.1652C13.4462 18.9463 13.4849 18.5702 13.4849 18.3008V15.7692H18.486V18.3204C18.486 18.6292 18.5743 18.806 18.624 18.9154C18.7123 19.0838 18.8779 19.2129 19.0628 19.2635C19.1125 19.2747 19.1705 19.2831 19.2284 19.2831C19.3747 19.2831 19.5127 19.2438 19.6286 19.154C19.9212 18.9547 19.9598 18.6264 19.9598 18.2896V12.0336C19.9488 10.0268 18.7096 8.48601 16.7858 8.09027ZM18.475 14.3575H13.4932V12.0532C13.4932 11.0597 13.8354 10.3636 14.5861 9.86968C15.1133 9.49359 15.806 9.35326 16.4905 9.48236C16.8217 9.5413 17.1143 9.67041 17.3682 9.85845L17.3792 9.86968C18.1217 10.3749 18.4722 11.0709 18.4722 12.0532V14.3575H18.475Z" fill="white"/>
<path d="M44.2892 13.9C43.6654 11.5256 41.2808 10.1559 38.8603 10.7706C37.621 11.0877 36.6136 11.854 36.0285 12.9261C35.4434 13.9982 35.3358 15.2808 35.7249 16.5326C36.31 18.3709 37.9798 19.5217 39.8842 19.5217C40.2265 19.5217 40.588 19.4824 40.9386 19.4038C41.4768 19.2859 42.0039 19.0558 42.4731 18.747C42.8236 18.5085 43.119 18.2503 43.2735 18.051C43.5164 17.7535 43.6654 17.5149 43.6351 17.2371C43.6158 17.049 43.5192 16.8806 43.3701 16.7599C43.2128 16.6421 43.0086 16.5915 42.8236 16.6308L42.7933 16.6421C42.6084 16.701 42.4621 16.7824 42.3434 16.9003L42.2164 17.0603L42.0315 17.2286L42.0205 17.2399C41.6092 17.6581 41.1124 17.9443 40.5742 18.0538C39.1197 18.3906 37.6845 17.6075 37.1574 16.1958C37.1187 16.0779 37.0884 15.9685 37.0608 15.8674H43.4474L43.5854 15.8478L43.8007 15.8366C44.0353 15.8169 44.2119 15.7271 44.3279 15.5587C44.5431 15.25 44.5321 14.7925 44.2892 13.9ZM37.0414 14.5146C37.0608 14.3855 37.0994 14.2761 37.138 14.147C37.6348 12.5388 39.2274 11.6743 40.8309 12.1515C41.8356 12.449 42.6194 13.2825 42.8733 14.3266C42.8926 14.4052 42.912 14.4866 42.923 14.5652L37.0414 14.5146Z" fill="white"/>
<path d="M34.7451 15.8562C34.6678 15.6878 34.5105 15.5587 34.3339 15.4998C34.149 15.4408 33.953 15.4689 33.7764 15.5587C33.4341 15.7271 33.3651 16.106 33.3458 16.2351L33.2878 16.5523L33.2768 16.6505C33.0532 17.6328 32.2722 18.1689 31.2758 18.0201C30.63 17.9219 29.7716 17.5739 29.7716 15.7664V15.6485H31.7257C31.9603 15.6485 32.6724 15.6485 32.6724 14.9328C32.6724 14.5764 32.4074 14.2761 32.0955 14.2564C31.9492 14.2368 31.8223 14.2368 31.676 14.2368H29.7716V11.4863C29.7716 11.2281 29.7412 11.0485 29.664 10.8997V10.8885C29.5756 10.7201 29.41 10.591 29.2251 10.5405C29.0292 10.4899 28.8249 10.5292 28.6593 10.6499C28.3668 10.8492 28.3281 11.1776 28.3281 11.5144V15.6148C28.3281 17.95 29.1589 19.1203 31.0246 19.4291C31.2399 19.4683 31.4552 19.488 31.6705 19.488C33.136 19.488 34.367 18.5646 34.7562 17.0939C34.7865 16.9761 34.8058 16.8666 34.8252 16.7571V16.7515C34.8831 16.3221 34.8638 16.0836 34.7451 15.8562Z" fill="white"/>
<path d="M70.3355 14.6157C70.3162 14.2592 70.2665 13.9393 70.1782 13.653C69.8746 12.5809 69.1625 11.6856 68.1772 11.1299C67.1229 10.5433 65.8809 10.4142 64.6913 10.7734C63.1374 11.2393 61.9672 12.5107 61.6443 14.1105C61.1668 16.513 62.4944 18.7583 64.73 19.3449C65.1412 19.4543 65.5607 19.5048 65.9692 19.5048C66.593 19.5048 67.2002 19.3757 67.7466 19.1288C68.1965 18.9211 68.5967 18.6432 68.9086 18.3036V18.3232C68.9086 18.5927 68.9086 18.7499 68.9859 18.9098L68.9969 18.9211C69.0852 19.0895 69.2508 19.2186 69.4358 19.2691C69.6317 19.3196 69.836 19.2803 70.0016 19.1596C70.3052 18.9519 70.3521 18.6039 70.3521 18.2952V14.7841L70.3355 14.6157ZM66.662 18.0005C65.0501 18.3766 63.557 17.4841 63.1264 15.8759V15.8646C63.0574 15.6569 63.0298 15.4464 63.0105 15.2388C62.9222 13.8186 63.7612 12.5388 65.0612 12.129C65.373 12.0308 65.696 11.9803 66.0078 11.9803C66.6123 11.9803 67.1891 12.1599 67.6887 12.5163C68.4394 13.0524 68.8893 13.9253 68.9196 14.9104C68.9776 16.4316 68.0778 17.6749 66.662 18.0005Z" fill="white"/>
<path d="M60.3139 9.37019C59.5908 8.4861 58.5061 7.98091 57.3358 8.00055C55.1389 8.03143 53.654 9.64804 53.654 12.0337V18.3205C53.654 18.6096 53.723 18.778 53.792 18.9155C53.8803 19.0839 54.0459 19.213 54.2308 19.2636C54.2805 19.2748 54.3385 19.2832 54.3964 19.2832C54.5427 19.2832 54.6807 19.2439 54.7966 19.1541C55.1002 18.9464 55.1389 18.5984 55.1389 18.2897V15.4381H57.2779C59.2982 15.4381 60.6754 14.366 61.0563 12.4996C61.2826 11.3769 61.0177 10.2459 60.3139 9.37019ZM57.2668 14.018H57.2365L55.1554 13.9871V11.9018C55.1554 10.9672 55.2934 10.5321 55.7323 10.0747C56.1628 9.61717 56.7286 9.39825 57.4021 9.40948C58.7214 9.44035 59.6377 10.403 59.6294 11.753C59.6018 13.0946 58.6358 14.018 57.2668 14.018Z" fill="white"/>
<path d="M78.0797 11.1579C77.9914 10.9895 77.8258 10.8604 77.6409 10.8099C77.4449 10.7594 77.2407 10.7987 77.0751 10.9194C76.7825 11.1187 76.7522 11.4555 76.7522 11.7838V15.7861C76.7522 16.5719 76.5176 17.2062 76.0981 17.5823C75.7282 17.9107 75.2287 18.0398 74.6518 17.9584C73.6555 17.8181 73.109 17.094 73.109 15.9124V11.7642C73.109 11.5172 73.0897 11.3376 73.0124 11.1692C72.9241 11.0008 72.7585 10.8717 72.5735 10.8212C72.3776 10.7706 72.1733 10.8099 72.0077 10.9306C71.7041 11.1383 71.6572 11.4863 71.6572 11.7951V15.9461C71.6572 17.6048 72.3997 18.7751 73.7576 19.2523C74.8036 19.6199 75.9463 19.4403 76.7356 18.8453V18.8762C76.6087 19.749 76.1698 20.2767 75.3887 20.4844C74.9692 20.6023 74.5387 20.5742 74.2075 20.4058C73.9342 20.2655 73.7383 20.1083 73.6223 19.9399L73.4071 19.662L73.2691 19.5021C73.1807 19.3842 73.1117 19.3224 73.0731 19.2944L73.0345 19.2551L72.9958 19.2354C72.7999 19.1175 72.557 19.1063 72.35 19.2046C72.1347 19.3028 71.9801 19.5021 71.9387 19.7322C71.8891 20.0494 72.016 20.3188 72.2423 20.6668L72.2534 20.678C72.419 20.9166 72.6453 21.1552 72.8882 21.3544C73.4153 21.781 74.1081 22 74.8423 22C75.1541 22 75.466 21.9607 75.7807 21.8821C77.3539 21.4751 78.2233 20.1925 78.2233 18.2756V11.7642C78.2343 11.4555 78.146 11.2871 78.0963 11.1776L78.0797 11.1579Z" fill="white"/>
<path d="M27.3624 12.9178L27.3321 12.828C26.8242 11.3966 25.6512 10.5546 24.2078 10.5631C23.9428 10.5631 23.7386 10.5827 23.515 10.6332C22.3613 10.8914 20.9951 11.7362 20.9951 14.2874V18.3206C20.9951 18.6293 21.0834 18.8061 21.1331 18.9072V18.9184C21.2214 19.0868 21.387 19.2159 21.572 19.2664C21.6216 19.2776 21.6796 19.2861 21.7376 19.2861C21.8838 19.2861 22.0218 19.2468 22.1378 19.157C22.4303 18.9577 22.469 18.6209 22.469 18.2925V17.3383L22.4386 15.6599H24.5196C25.2041 15.6599 25.3697 15.3035 25.389 14.9947C25.4001 14.7365 25.3007 14.5765 25.2234 14.4895C25.0772 14.3295 24.8426 14.251 24.5196 14.251H22.4303C22.4414 12.9403 22.8609 12.2947 23.8269 12.0871C24.481 11.9383 25.1268 12.1572 25.527 12.6428C25.723 12.8897 25.8389 13.1087 25.8886 13.3079C26.0349 14.0236 26.1122 14.2425 26.2115 14.3801L26.2419 14.4194C26.4572 14.6663 26.838 14.7365 27.1499 14.5793C27.6081 14.3324 27.5612 13.7458 27.4618 13.2574C27.4314 13.1255 27.4011 13.016 27.3624 12.9178Z" fill="white"/>
<path d="M80.6879 8.66572C80.4837 8.45803 80.2298 8.34857 79.9262 8.34857C79.6336 8.34857 79.3797 8.4468 79.1644 8.66572C78.9602 8.88464 78.8525 9.14285 78.8525 9.44035C78.8525 9.73786 78.9602 9.99607 79.1644 10.215C79.3687 10.4339 79.6226 10.5434 79.9262 10.5434C80.2187 10.5434 80.4727 10.4339 80.6879 10.215C80.8922 9.99607 80.9998 9.73786 80.9998 9.44035C80.9998 9.13162 80.9032 8.87341 80.6879 8.66572ZM80.5693 10.1055C80.3926 10.2936 80.1691 10.3834 79.9151 10.3834C79.6612 10.3834 79.4459 10.2936 79.261 10.1055C79.0761 9.91748 78.9878 9.68734 78.9878 9.42913C78.9878 9.17092 79.0844 8.952 79.261 8.76395C79.4459 8.58433 79.6612 8.4861 79.9151 8.4861C80.1691 8.4861 80.3843 8.57591 80.5693 8.76395C80.7542 8.94358 80.8425 9.17092 80.8425 9.42913C80.8425 9.69856 80.7459 9.91748 80.5693 10.1055Z" fill="white"/>
<path d="M80.4039 9.17361C80.4039 9.01364 80.3349 8.9154 80.219 8.86488C80.15 8.83401 80.0424 8.82559 79.8961 8.82559H79.4849V10.0268H79.7001V9.5497H79.8657C79.9817 9.5497 80.0507 9.56093 80.1003 9.589C80.1693 9.63952 80.208 9.72933 80.208 9.86685V10.0156V10.0268H80.4039L80.3929 10.0156C80.3819 10.0044 80.3819 9.98473 80.3819 9.95667V9.77704C80.3819 9.7181 80.3515 9.64794 80.3129 9.589C80.2632 9.53006 80.1969 9.49076 80.1086 9.47112C80.1859 9.45989 80.2466 9.44024 80.2853 9.41218C80.3653 9.36166 80.4039 9.28307 80.4039 9.17361ZM80.0727 9.38131C80.0341 9.40095 79.9651 9.41218 79.8768 9.41218H79.6919V8.97434H79.8685C79.9844 8.97434 80.0727 8.99399 80.1224 9.02486C80.1804 9.05574 80.1997 9.11468 80.1997 9.19326C80.1997 9.28307 80.15 9.35043 80.0727 9.38131Z" fill="white"/>
<path d="M78 38.2532L74.889 42.3853V45.7468H73.1775V42.3853L70.0665 38.2532H72.1881L74.0812 40.7986L75.9597 38.2532H78ZM60.6761 38.2532V39.7331H63.4187V45.75H65.1156V39.7299H67.8551V38.25L60.6761 38.2532ZM52.1884 39.7331H54.7129C55.4632 39.7331 55.8118 40.0196 55.8118 40.6253C55.8118 41.231 55.4632 41.5174 54.7129 41.5174H52.1884V39.7331ZM57.9011 45.75L55.9527 42.862C56.9963 42.5756 57.5411 41.8155 57.5411 40.6253C57.5411 39.0819 56.6164 38.2563 54.8976 38.2563H50.4915V45.75H52.1884V42.991H54.0596L55.8984 45.7468L57.9011 45.75ZM39.1161 38.2563V45.75H45.8067V44.2701H40.8162V42.7162H45.1044V41.2363H40.8162V39.7299H45.8098V38.25L39.1161 38.2563ZM33.7937 38.2563L31.6105 43.7965L29.4126 38.2542H27.5717L30.6942 45.7479H32.4349L35.5574 38.2542L33.7937 38.2563ZM22.2931 45.7468H23.99V38.2532H22.2931V45.7468ZM12 45.7468H13.6969V39.9709H12V45.7468ZM13.6969 39.972H19.3982V38.2521H13.6969V39.972Z" fill="#E7E4E2"/>
</svg>
